<svg width="200" height="200" viewBox="0 0 200 200" fill="none" xmlns="http://www.w3.org/2000/svg">
  <!-- Book shelf background -->
  <rect width="200" height="200" fill="#F8F9FA"/>
  
  <!-- Books on shelf -->
  <rect x="20" y="30" width="30" height="140" fill="#4CAF50" stroke="#2E7D32" stroke-width="2"/>
  <rect x="50" y="30" width="25" height="140" fill="#2196F3" stroke="#0D47A1" stroke-width="2"/>
  <rect x="75" y="30" width="20" height="140" fill="#FFC107" stroke="#FF8F00" stroke-width="2"/>
  <rect x="95" y="30" width="35" height="140" fill="#F44336" stroke="#B71C1C" stroke-width="2"/>
  <rect x="130" y="30" width="25" height="140" fill="#9C27B0" stroke="#4A148C" stroke-width="2"/>
  <rect x="155" y="30" width="25" height="140" fill="#009688" stroke="#004D40" stroke-width="2"/>
  
  <!-- Book titles (lines) -->
  <line x1="30" y1="50" x2="40" y2="50" stroke="#FFFFFF" stroke-width="2"/>
  <line x1="30" y1="60" x2="40" y2="60" stroke="#FFFFFF" stroke-width="2"/>
  <line x1="30" y1="70" x2="40" y2="70" stroke="#FFFFFF" stroke-width="2"/>
  
  <line x1="55" y1="50" x2="70" y2="50" stroke="#FFFFFF" stroke-width="2"/>
  <line x1="55" y1="60" x2="70" y2="60" stroke="#FFFFFF" stroke-width="2"/>
  
  <line x1="80" y1="50" x2="90" y2="50" stroke="#FFFFFF" stroke-width="2"/>
  <line x1="80" y1="60" x2="90" y2="60" stroke="#FFFFFF" stroke-width="2"/>
  <line x1="80" y1="70" x2="90" y2="70" stroke="#FFFFFF" stroke-width="2"/>
  
  <line x1="105" y1="50" x2="125" y2="50" stroke="#FFFFFF" stroke-width="2"/>
  <line x1="105" y1="60" x2="125" y2="60" stroke="#FFFFFF" stroke-width="2"/>
  
  <line x1="135" y1="50" x2="150" y2="50" stroke="#FFFFFF" stroke-width="2"/>
  <line x1="135" y1="60" x2="150" y2="60" stroke="#FFFFFF" stroke-width="2"/>
  <line x1="135" y1="70" x2="150" y2="70" stroke="#FFFFFF" stroke-width="2"/>
  
  <line x1="160" y1="50" x2="175" y2="50" stroke="#FFFFFF" stroke-width="2"/>
  <line x1="160" y1="60" x2="175" y2="60" stroke="#FFFFFF" stroke-width="2"/>
  
  <!-- Shelf -->
  <rect x="10" y="170" width="180" height="10" fill="#8D6E63" stroke="#5D4037" stroke-width="2"/>
</svg>